# xmcd
#
# Track frame offsets: 
#        182
#        10040
#        20540
#        35395
#        47337
#        58630
#        69277
#        83070
#        92705
#        105112
#        115187
#        128817
#        141972
#        152185
#        165665
#        175787
#        186920
#        198240
#
# Disc length: 2774 seconds
#
# Revision: 0
# Processed by: cddbd v1.5.1PL0 Copyright (c) Steve Scherf et al.
# Submitted via: ExactAudioCopy v0.95a4
#
DISCID=db0ad412
DTITLE=Various Artist - Selection Of Country Gentlemen (784) CD1
DYEAR=1997
DGENRE=Country
TTITLE0=Eddie Jones - Dep In The Heart Of Texas
TTITLE1=Johnny Cash - You Win Again
TTITLE2=Frankie Laine - Sixten Tons
TTITLE3=Kenny Rogers and The First Edition - Ruby, Don't Take Your Lowe 
TTITLE3=To Town
TTITLE4=George Jones - I Can't Change Overnight
TTITLE5=Don Gibson - Oh Lonesome Me
TTITLE6=Willie Nelson - Home Is Where You're Happy
TTITLE7=Jerry Lee Lewis - Walk Right In
TTITLE8=The Oak Ridge Boys - You'll Never Walk Alone
TTITLE9=Carl Perkins - Daddy Sang Bass
TTITLE10=Freddy Fender - Baby I Want To Love You
TTITLE11=Stu Stevens - Love Me Tender
TTITLE12=Buddy Knox - Devil Women
TTITLE13=George Jones - Cold, Cold Heard
TTITLE14=Waylon Jennings - White Lightning
TTITLE15=Coneay Twitty - Have I Been Away Too Long
TTITLE16=Don Williams - Follow Me Back To Louisville
TTITLE17=Faron Young - Hello Walls
EXTD=
EXTT0=
EXTT1=
EXTT2=
EXTT3=
EXTT4=
EXTT5=
EXTT6=
EXTT7=
EXTT8=
EXTT9=
EXTT10=
EXTT11=
EXTT12=
EXTT13=
EXTT14=
EXTT15=
EXTT16=
EXTT17=
PLAYORDER=
